<mxfile host="app.diagrams.net" agent="Mozilla/5.0 (Windows NT 10.0; Win64; x64) AppleWebKit/537.36 (KHTML, like Gecko) Chrome/136.0.0.0 Safari/537.36" version="26.2.14">
  <diagram name="Page-1" id="nsQPfThK8mpLb_BoquX3">
    <mxGraphModel dx="1226" dy="661" grid="1" gridSize="10" guides="1" tooltips="1" connect="1" arrows="1" fold="1" page="1" pageScale="1" pageWidth="827" pageHeight="1169" math="0" shadow="0">
      <root>
        <mxCell id="0" />
        <mxCell id="1" parent="0" />
        <mxCell id="hIp6h4K_GORDrboO5bm3-11" style="edgeStyle=orthogonalEdgeStyle;rounded=0;orthogonalLoop=1;jettySize=auto;html=1;entryX=0.5;entryY=0;entryDx=0;entryDy=0;" edge="1" parent="1" source="hIp6h4K_GORDrboO5bm3-1" target="hIp6h4K_GORDrboO5bm3-9">
          <mxGeometry relative="1" as="geometry" />
        </mxCell>
        <mxCell id="hIp6h4K_GORDrboO5bm3-1" value="mobile device" style="swimlane;fontStyle=0;childLayout=stackLayout;horizontal=1;startSize=26;fillColor=none;horizontalStack=0;resizeParent=1;resizeParentMax=0;resizeLast=0;collapsible=1;marginBottom=0;whiteSpace=wrap;html=1;" vertex="1" parent="1">
          <mxGeometry x="140" y="80" width="140" height="52" as="geometry" />
        </mxCell>
        <mxCell id="hIp6h4K_GORDrboO5bm3-2" value="- mobile app" style="text;strokeColor=none;fillColor=none;align=left;verticalAlign=top;spacingLeft=4;spacingRight=4;overflow=hidden;rotatable=0;points=[[0,0.5],[1,0.5]];portConstraint=eastwest;whiteSpace=wrap;html=1;" vertex="1" parent="hIp6h4K_GORDrboO5bm3-1">
          <mxGeometry y="26" width="140" height="26" as="geometry" />
        </mxCell>
        <mxCell id="hIp6h4K_GORDrboO5bm3-13" style="edgeStyle=orthogonalEdgeStyle;rounded=0;orthogonalLoop=1;jettySize=auto;html=1;entryX=0.5;entryY=0;entryDx=0;entryDy=0;" edge="1" parent="1" source="hIp6h4K_GORDrboO5bm3-5" target="hIp6h4K_GORDrboO5bm3-9">
          <mxGeometry relative="1" as="geometry" />
        </mxCell>
        <mxCell id="hIp6h4K_GORDrboO5bm3-5" value="voice device" style="swimlane;fontStyle=0;childLayout=stackLayout;horizontal=1;startSize=26;fillColor=none;horizontalStack=0;resizeParent=1;resizeParentMax=0;resizeLast=0;collapsible=1;marginBottom=0;whiteSpace=wrap;html=1;" vertex="1" parent="1">
          <mxGeometry x="480" y="80" width="140" height="52" as="geometry" />
        </mxCell>
        <mxCell id="hIp6h4K_GORDrboO5bm3-6" value="- voice assistant app" style="text;strokeColor=none;fillColor=none;align=left;verticalAlign=top;spacingLeft=4;spacingRight=4;overflow=hidden;rotatable=0;points=[[0,0.5],[1,0.5]];portConstraint=eastwest;whiteSpace=wrap;html=1;" vertex="1" parent="hIp6h4K_GORDrboO5bm3-5">
          <mxGeometry y="26" width="140" height="26" as="geometry" />
        </mxCell>
        <mxCell id="hIp6h4K_GORDrboO5bm3-22" style="edgeStyle=orthogonalEdgeStyle;rounded=0;orthogonalLoop=1;jettySize=auto;html=1;entryX=0.5;entryY=0;entryDx=0;entryDy=0;" edge="1" parent="1" source="hIp6h4K_GORDrboO5bm3-9" target="hIp6h4K_GORDrboO5bm3-18">
          <mxGeometry relative="1" as="geometry" />
        </mxCell>
        <mxCell id="hIp6h4K_GORDrboO5bm3-9" value="internet connection" style="rounded=1;whiteSpace=wrap;html=1;" vertex="1" parent="1">
          <mxGeometry x="320" y="200" width="120" height="60" as="geometry" />
        </mxCell>
        <mxCell id="hIp6h4K_GORDrboO5bm3-25" style="edgeStyle=orthogonalEdgeStyle;rounded=0;orthogonalLoop=1;jettySize=auto;html=1;entryX=0.5;entryY=0;entryDx=0;entryDy=0;" edge="1" parent="1" source="hIp6h4K_GORDrboO5bm3-18" target="hIp6h4K_GORDrboO5bm3-23">
          <mxGeometry relative="1" as="geometry" />
        </mxCell>
        <mxCell id="hIp6h4K_GORDrboO5bm3-18" value="cloud server" style="swimlane;fontStyle=0;childLayout=stackLayout;horizontal=1;startSize=26;fillColor=none;horizontalStack=0;resizeParent=1;resizeParentMax=0;resizeLast=0;collapsible=1;marginBottom=0;whiteSpace=wrap;html=1;" vertex="1" parent="1">
          <mxGeometry x="310" y="320" width="140" height="52" as="geometry" />
        </mxCell>
        <mxCell id="hIp6h4K_GORDrboO5bm3-19" value="+ user authenntication" style="text;strokeColor=none;fillColor=none;align=left;verticalAlign=top;spacingLeft=4;spacingRight=4;overflow=hidden;rotatable=0;points=[[0,0.5],[1,0.5]];portConstraint=eastwest;whiteSpace=wrap;html=1;" vertex="1" parent="hIp6h4K_GORDrboO5bm3-18">
          <mxGeometry y="26" width="140" height="26" as="geometry" />
        </mxCell>
        <mxCell id="hIp6h4K_GORDrboO5bm3-26" style="edgeStyle=orthogonalEdgeStyle;rounded=0;orthogonalLoop=1;jettySize=auto;html=1;entryX=0.5;entryY=0;entryDx=0;entryDy=0;" edge="1" parent="1" source="hIp6h4K_GORDrboO5bm3-23" target="hIp6h4K_GORDrboO5bm3-24">
          <mxGeometry relative="1" as="geometry" />
        </mxCell>
        <mxCell id="hIp6h4K_GORDrboO5bm3-23" value="local hub" style="rounded=1;whiteSpace=wrap;html=1;" vertex="1" parent="1">
          <mxGeometry x="320" y="440" width="120" height="60" as="geometry" />
        </mxCell>
        <mxCell id="hIp6h4K_GORDrboO5bm3-24" value="devices (lights, cameras, fan, thermostat, etc)" style="rounded=1;whiteSpace=wrap;html=1;" vertex="1" parent="1">
          <mxGeometry x="300" y="560" width="160" height="90" as="geometry" />
        </mxCell>
      </root>
    </mxGraphModel>
  </diagram>
</mxfile>
